<?xml version="1.0" encoding="utf-8"?>
<!-- Generator: Adobe Illustrator 19.1.0, SVG Export Plug-In . SVG Version: 6.00 Build 0)  -->
<!DOCTYPE svg PUBLIC "-//W3C//DTD SVG 1.1//EN" "http://www.w3.org/Graphics/SVG/1.1/DTD/svg11.dtd">
<svg version="1.1" id="Layer_1" xmlns="http://www.w3.org/2000/svg" xmlns:xlink="http://www.w3.org/1999/xlink" x="0px" y="0px"
	 viewBox="0 0 61.1 56.9" enable-background="new 0 0 61.1 56.9" xml:space="preserve">
<g>
	<g>
		<g>
			<path fill="#333333" d="M3,28.7C3,14.1,13.5,6.4,20,7.4c3.7,0.6,7.9,7.2,5.4,22.9c-2.3,14.9-8,27.8-15.1,25.8
				c-3.8-1.1-3.4-7.5-2.9-10.8C10.5,25.2,20.8,3.3,32.1,5.5c6.7,1.3,9,12.4,7.2,24c-0.9,5.9-4.9,23.9-12.4,22.4
				c-2.1-0.4-3.5-2.3-2.6-8.2c1.8-12.2,11.6-33.8,21.8-32c5.4,1,6.4,10,5.2,17c-1.7,9.9-5.7,18.5-10,17.7c-2.7-0.5-3.1-3.2-2.5-6.6
				c0.9-5.8,6.3-20,13.5-18.8c3.6,0.6,4,5.6,6.1,5.2c0.8-0.2,0.9-1.3,0.3-3.8l0.8-0.2c1,4.1-0.3,4.6-0.9,4.8
				c-2.9,0.6-3.6-3.8-6.3-4.2c-6.5-1-11.2,13.5-11.8,17.4c-0.4,2.6-0.2,3.8,0.8,4c3.1,0.6,5.5-9.8,6.2-15.8
				c0.9-6.9,0.4-13.5-3.2-14.1C38,13.1,28.5,30,26.4,43.8c-0.4,2.4-0.5,5.4,1,5.7c3.6,0.7,6-11.8,7.2-20c1-7,1.2-20.4-4.1-21.6
				c-6.9-1.5-17.5,14.9-21,37.6c-0.4,3-0.7,7.5,1.5,8.1c3.8,1.1,7.8-12.2,9.4-23.3c2.1-14.6,0.4-20.1-2.4-20.5
				C13.7,9.2,3.9,15.3,3.9,28.7"/>
			<path fill="#333333" d="M60.2,30.5c-0.9,13.6-12.9,26.4-29.7,26.4C18.4,56.9,3,47.9,3,28.7l0.9,0C3.9,48.8,20.8,56,30.6,56
				c16,0,27.9-12.2,28.8-25.7L60.2,30.5z"/>
			<path fill="#333333" d="M59.4,30.3c0-0.3-0.2-0.5-0.4-0.8c-0.2-0.2-0.4-0.5-0.4-0.9c0-0.7,0.6-1.2,1.2-1.2c0.7,0,1.2,0.6,1.2,1.2
				c0,0.3-0.1,0.6-0.4,0.9c-0.3,0.3-0.5,0.6-0.5,0.9h0"/>
			<path fill="#333333" d="M0.9,27.1c0,0.3-0.2,0.6-0.5,0.8C0.1,28.2,0,28.5,0,28.8C0,29.5,0.5,30,1.2,30c0.7,0,1.3-0.6,1.3-1.2
				c0-0.3-0.1-0.6-0.4-0.9h0c-0.3-0.3-0.4-0.5-0.4-0.8"/>
			<path fill="#333333" d="M1.7,27.1C2.6,11.3,16,0.8,30.6,0.8c13.6,0,24.7,8.9,27.9,20.6c0.1,0.3,0.3,1,0.3,1l0.8-0.2
				c0-0.2-0.1-0.3-0.1-0.4C56.4,9.5,44.8,0,30.6,0C15.4,0,1.8,11,0.9,27.1L1.7,27.1z"/>
			<g>
				<path fill="#333333" d="M9.5,45.4c0,0.3,0,0.5,0.1,0.6c0.2,0.3-0.1,0.4-0.1,0.4S9,46.1,9.1,46c0-0.1,0.2-0.8,0.2-0.8
					S9.5,45.4,9.5,45.4z"/>
				<path fill="#333333" d="M9.4,47.2C9.4,47.1,9.3,47.2,9.4,47.2c-0.1,0.2-0.4,0-0.4,0l0.2-0.5C9.3,46.8,9.5,47.3,9.4,47.2z"/>
				<path fill="#333333" d="M14.6,50.7c0.1,0.1,0.2,0.1,0.2,0c0-0.1,0,0.3,0,0.3S14.5,50.7,14.6,50.7z"/>
				<path fill="#333333" d="M14.2,51.5c0.1,0,0.1,0.1,0,0.2c-0.1,0.1,0.3-0.1,0.3-0.1S14.1,51.5,14.2,51.5z"/>
				<path fill="#333333" d="M17.8,52.7c0.1,0-0.4,0.2-0.3,0c0-0.2,0.3-0.2,0.3-0.1C17.7,52.6,17.8,52.7,17.8,52.7z"/>
				<path fill="#333333" d="M17.2,53.4c0.1,0-0.2-0.2-0.2-0.2s-0.1,0.3,0,0.2C17.1,53.4,17.2,53.4,17.2,53.4z"/>
				<path fill="#333333" d="M7.6,43.2c-0.1-0.1-0.3,0.1,0.1,0.3c0.4,0.2,0-0.5,0-0.4C7.7,43.3,7.7,43.3,7.6,43.2z"/>
				<path fill="#333333" d="M7.4,44.5c0.1,0.1,0.1,0.2,0.1,0.3c0,0.1,0.1-0.2,0.1-0.2S7.3,44.4,7.4,44.5z"/>
			</g>
		</g>
	</g>
</g>
</svg>
